<svg width="64" height="64" viewBox="0 0 64 64" fill="none" xmlns="http://www.w3.org/2000/svg">
<path fill-rule="evenodd" clip-rule="evenodd" d="M2.17067 0H61.8293C63.0282 0 64 0.984766 64 2.19954V46.2659C63.9917 48.3984 62.7704 50.3347 60.864 51.2378L35.424 63.2299C33.2426 64.2567 30.7254 64.2567 28.544 63.2299L3.13067 51.2378C1.22375 50.3304 0.00447398 48.3898 0 46.2551V2.19954C0 0.984766 0.971841 0 2.17067 0ZM61.2853 17.5855C61.2925 18.0201 61.1271 18.4395 60.8262 18.7494C60.5254 19.0593 60.1143 19.2338 59.6853 19.2338H3.25333C2.95878 19.2338 2.72 18.9918 2.72 18.6934V4.39367C2.72 3.49826 3.43634 2.77239 4.32 2.77239H61.0187C61.1659 2.77239 61.2853 2.89337 61.2853 3.0426V17.5855ZM61.2853 46.2281C61.2943 47.2976 60.6883 48.2746 59.7333 48.7303L34.2773 60.7223C32.824 61.4111 31.144 61.4111 29.6907 60.7223L14.3467 53.4536L60.9013 31.5015C60.9851 31.4631 61.0823 31.4702 61.1598 31.5204C61.2373 31.5705 61.2845 31.6569 61.2853 31.7501V46.2281ZM41.2693 21.9846H7.74933V22.0062C7.69473 22.0003 7.64466 22.0374 7.63363 22.0919C7.62259 22.1464 7.6542 22.2005 7.70667 22.2169L40.928 37.8893L57.7227 29.9558C57.7627 29.9392 57.7888 29.8997 57.7888 29.8559C57.7888 29.812 57.7627 29.7725 57.7227 29.7559L41.2693 21.9846ZM4.26667 48.7194C3.31108 48.2686 2.70114 47.2962 2.704 46.2281V32.5985C2.70085 32.3168 2.84137 32.0533 3.0757 31.9016C3.31003 31.7499 3.60502 31.7314 3.856 31.8527L28.8 43.6286L11.1467 51.9674L4.26667 48.7194Z" fill="black"/>
<path d="M45.6841 12.4601C45.4728 13.6541 44.7685 14.2048 43.815 14.2048C42.8615 14.2048 42.3523 13.6284 42.5635 12.4138L43.7662 5.51721H41.0195L39.8222 12.388C39.3184 15.2547 40.792 16.5517 43.387 16.5517C45.982 16.5517 47.954 15.2702 48.4633 12.3417L49.6552 5.51721H46.8922L45.6841 12.4601Z" fill="black"/>
<path d="M20.9655 16.5517H23.8804L27.7489 8.96483L29.1013 16.5517H32L29.8448 5.63336V5.51721H27.8136C27.245 5.53549 26.7304 5.85216 26.4666 6.34612L20.9655 16.5517Z" fill="black"/>
<path d="M23.8509 8.01618L24.2759 5.51721H16.7452C16.2383 5.51798 15.8057 5.87197 15.7208 6.35547L15.4483 8.01618H18.271L16.7997 16.5517H19.5678L21.0282 8.01618H23.8509Z" fill="black"/>
<path d="M40.4028 8.01619L40.8276 5.51722H33.3015C32.7941 5.5158 32.3605 5.87082 32.2777 6.35548L32 8.01619H34.8209L33.356 16.5517H36.1224L37.5819 8.01619H40.4028Z" fill="black"/>
<path d="M54.5323 13.2324C54.4476 13.7601 53.8386 14.0556 52.6153 14.0556H50.0682L49.6552 16.5517H52.3029C55.5914 16.5517 57.0688 14.4831 57.2807 13.111C57.5243 11.6492 56.7246 11.0002 55.2949 10.2244C54.2834 9.6967 53.3037 9.38535 53.3991 8.8207C53.4573 8.4513 53.9816 8.01857 54.9877 8.01857H58.0697L58.4827 5.51721H55.512C53.0019 5.51721 50.9631 7.05813 50.656 8.92096C50.3489 10.7838 51.6621 11.3062 52.7742 11.9131C53.5844 12.3511 54.617 12.7099 54.5323 13.2324Z" fill="black"/>
<path d="M11.7882 13.2324C11.7014 13.7601 11.0778 14.0556 9.82528 14.0556H7.04903L6.62067 16.5517H9.50536C12.8726 16.5517 14.3855 14.4831 14.6024 13.111C14.8518 11.6492 14.033 11.0002 12.569 10.2244C11.5333 9.6967 10.5302 9.38535 10.6278 8.8207C10.6874 8.4513 11.2242 8.01857 12.2545 8.01857H15.0253L15.4483 5.51721H12.7967C10.2265 5.51721 8.13892 7.05813 7.82443 8.92096C7.50993 10.7838 8.85467 11.3062 9.99337 11.9131C10.823 12.3511 11.8803 12.7099 11.7936 13.2324" fill="black"/>
</svg>
